<svg width="48" height="48" xmlns="http://www.w3.org/2000/svg">

 <g>
  <title>background</title>
  <rect fill="none" id="canvas_background" height="402" width="582" y="-1" x="-1"/>
 </g>
 <g>
  <title>Layer 1</title>
  <path id="svg_1" fill="#0066FF" d="m36.573898,48c-6.310398,0 -11.426098,-5.115601 -11.426098,-11.426102c0,-6.310398 5.1157,-11.426098 11.426098,-11.426098c6.310501,0 11.426102,5.1157 11.426102,11.426098c0,6.310501 -5.115601,11.426102 -11.426102,11.426102z"/>
  <path id="svg_2" fill="#5D00F5" d="m11.4261,48c6.3104,0 11.4261,-5.115601 11.4261,-11.426102c0,-6.310398 -5.1157,-11.426098 -11.4261,-11.426098c-6.31047,0 -11.4261,5.1157 -11.4261,11.426098c0,6.310501 5.11563,11.426102 11.4261,11.426102z"/>
  <path id="svg_3" fill="#EB236B" d="m11.4261,22.8522c6.3104,0 11.4261,-5.1157 11.4261,-11.4261c0,-6.31047 -5.1157,-11.4261 -11.4261,-11.4261c-6.31047,0 -11.4261,5.11563 -11.4261,11.4261c0,6.3104 5.11563,11.4261 11.4261,11.4261z"/>
  <path id="svg_4" fill="#4BD0A0" d="m36.573898,22.8522c6.310501,0 11.426102,-5.1157 11.426102,-11.4261c0,-6.31047 -5.115601,-11.4261 -11.426102,-11.4261c-6.310398,0 -11.426098,5.11563 -11.426098,11.4261c0,6.3104 5.1157,11.4261 11.426098,11.4261z"/>
  <path id="svg_5" fill="white" d="m23.7391,35.373901c6.310501,0 11.4261,-5.139002 11.4261,-11.478302c0,-6.339199 -5.115599,-11.478199 -11.4261,-11.478199c-6.3104,0 -11.4261,5.139 -11.4261,11.478199c0,6.3393 5.1157,11.478302 11.4261,11.478302z"/>
 </g>
</svg>